<?xml version="1.0" encoding="UTF-8"?>
<!DOCTYPE svg PUBLIC "-//W3C//DTD SVG 1.1//EN" "http://www.w3.org/Graphics/SVG/1.1/DTD/svg11.dtd">
<svg version="1.1" xmlns="http://www.w3.org/2000/svg" xmlns:xlink="http://www.w3.org/1999/xlink" x="0" y="0" width="143.979" height="77.504" viewBox="0, 0, 143.979, 77.504">
  <g id="Layer_1" transform="translate(-5.373, -4.496)">
    <g>
      <path d="M13.678,54.84 L16.358,56.088 L23.73,64.862 L23.73,58.34 L27.23,54.84 L30.254,54.84 L31.318,55.904 L32.382,54.84 L52.542,54.84 L53.564,55.862 L54.586,54.84 L57.61,54.84 L61.11,58.34 L61.11,71.976 L68.222,71.976 L68.222,58.34 L71.722,54.84 L74.746,54.84 L76.62,56.714 C77.929,55.37 79.633,55.009 81.41,54.84 L94.29,54.84 C96.225,54.84 97.974,55.563 99.341,56.929 L99.4,57.001 L99.459,56.929 C100.826,55.563 102.575,54.84 104.51,54.84 L117.39,54.84 C119.325,54.84 121.074,55.563 122.441,56.929 L122.528,57.035 L122.615,56.929 C123.982,55.563 125.731,54.84 127.666,54.84 L144.13,54.84 L147.63,58.34 L147.63,61.364 L144.13,64.864 L130.55,64.864 L130.55,71.976 L144.13,71.976 L147.63,75.476 L147.63,78.5 L144.13,82 L127.666,82 C125.731,82 123.982,81.277 122.615,79.911 L122.528,79.805 L122.441,79.911 C121.074,81.277 119.325,82 117.39,82 L104.51,82 C102.575,82 100.826,81.277 99.459,79.911 L99.4,79.839 L99.341,79.911 C97.974,81.277 96.225,82 94.29,82 L81.41,82 C79.475,82 77.726,81.277 76.359,79.911 L76.258,79.788 L76.157,79.911 C74.79,81.277 73.041,82 71.106,82 L58.226,82 C56.291,82 54.542,81.277 53.175,79.911 C51.809,78.544 51.086,76.795 51.086,74.86 L51.086,64.864 L47.474,64.864 L47.474,78.5 L43.974,82 L40.95,82 L37.45,78.5 L37.45,64.864 L33.754,64.864 L33.754,78.5 L30.254,82 L26.67,82 L23.99,80.752 L16.618,71.978 L16.618,78.5 L13.118,82 L10.094,82 L6.594,78.5 L6.594,58.34 L10.094,54.84 L13.678,54.84 z M91.406,64.864 L84.294,64.864 L84.294,71.976 L91.406,71.976 L91.406,64.864 z" fill="#FFFFFF"/>
      <path d="M27.23,74.468 L27.23,58.34 L30.254,58.34 L30.254,78.5 L26.67,78.5 L13.118,62.372 L13.118,78.5 L10.094,78.5 L10.094,58.34 L13.678,58.34 z M32.382,61.364 L40.95,61.364 L40.95,78.5 L43.974,78.5 L43.974,61.364 L52.542,61.364 L52.542,58.34 L32.382,58.34 z M71.722,74.86 Q71.722,75.112 71.54,75.294 Q71.358,75.476 71.106,75.476 L58.226,75.476 Q57.974,75.476 57.792,75.294 Q57.61,75.112 57.61,74.86 L57.61,58.34 L54.586,58.34 L54.586,74.86 Q54.586,76.372 55.65,77.436 Q56.714,78.5 58.226,78.5 L71.106,78.5 Q72.618,78.5 73.682,77.436 Q74.746,76.372 74.746,74.86 L74.746,58.34 L71.722,58.34 L71.722,74.86 z M81.41,75.476 Q81.158,75.476 80.976,75.294 Q80.794,75.112 80.794,74.86 L80.794,61.98 Q80.794,61.728 80.976,61.546 Q81.158,61.364 81.41,61.364 L94.29,61.364 Q94.542,61.364 94.724,61.546 Q94.906,61.728 94.906,61.98 L94.906,74.86 Q94.906,75.112 94.724,75.294 Q94.542,75.476 94.29,75.476 L81.41,75.476 z M81.41,58.34 Q79.898,58.34 78.834,59.404 Q77.77,60.468 77.77,61.98 L77.77,74.86 Q77.77,76.372 78.834,77.436 Q79.898,78.5 81.41,78.5 L94.29,78.5 Q95.802,78.5 96.866,77.436 Q97.93,76.372 97.93,74.86 L97.93,61.98 Q97.93,60.468 96.866,59.404 Q95.802,58.34 94.29,58.34 L81.41,58.34 z M121.03,61.98 Q121.03,60.468 119.966,59.404 Q118.902,58.34 117.39,58.34 L104.51,58.34 Q102.998,58.34 101.934,59.404 Q100.87,60.468 100.87,61.98 L100.87,66.292 Q100.87,67.804 101.934,68.868 Q102.998,69.932 104.51,69.932 L117.39,69.932 Q117.642,69.932 117.824,70.114 Q118.006,70.296 118.006,70.548 L118.006,74.86 Q118.006,75.112 117.824,75.294 Q117.642,75.476 117.39,75.476 L104.51,75.476 Q104.258,75.476 104.076,75.294 Q103.894,75.112 103.894,74.86 L103.894,73.684 L100.87,73.684 L100.87,74.86 Q100.87,76.372 101.934,77.436 Q102.998,78.5 104.51,78.5 L117.39,78.5 Q118.902,78.5 119.966,77.436 Q121.03,76.372 121.03,74.86 L121.03,70.548 Q121.03,69.036 119.966,67.972 Q118.902,66.908 117.39,66.908 L104.51,66.908 Q104.258,66.908 104.076,66.726 Q103.894,66.544 103.894,66.292 L103.894,61.98 Q103.894,61.728 104.076,61.546 Q104.258,61.364 104.51,61.364 L117.39,61.364 Q117.642,61.364 117.824,61.546 Q118.006,61.728 118.006,61.98 L118.006,63.156 L121.03,63.156 L121.03,61.98 z M144.13,58.34 L127.666,58.34 Q126.154,58.34 125.09,59.404 Q124.026,60.468 124.026,61.98 L124.026,74.86 Q124.026,76.372 125.09,77.436 Q126.154,78.5 127.666,78.5 L144.13,78.5 L144.13,75.476 L127.666,75.476 Q127.414,75.476 127.232,75.294 Q127.05,75.112 127.05,74.86 L127.05,61.98 Q127.05,61.728 127.232,61.546 Q127.414,61.364 127.666,61.364 L144.13,61.364 z" fill="#73A760"/>
    </g>
    <g>
      <path d="M13.276,4.64 L16.472,6.714 C17.853,9.542 17.165,8.319 18.451,10.428 C19.236,8.219 18.702,9.169 19.943,7.517 C21.423,5.945 23.519,5.12 25.852,5.12 L49.948,5.12 L53.448,8.62 L53.448,11.836 L50.42,14.864 C51.491,16.127 51.786,17.77 51.864,19.372 L51.864,27.628 C51.866,29.722 51.119,31.627 49.678,33.129 L49.947,33.359 C50.549,37.092 51.902,40.941 53.943,45.023 L50.812,50.088 L46.108,50.088 L43.701,48.489 C42.779,50.8 43.379,49.839 42.055,51.463 C40.637,52.88 38.686,53.592 36.556,53.592 L32.524,53.592 L29.341,51.547 L28.674,50.088 L25.582,50.088 L24.65,51.857 L21.628,53.592 L16.732,53.592 L15.889,52.017 L13.372,53.592 L8.524,53.592 L5.49,48.347 C8.357,43.365 9.987,37.82 11.275,32.255 L11.227,32.23 C9.055,29.134 7.488,26.011 5.526,21.228 L8.764,16.4 L8.871,16.4 C6.098,11.352 7.217,13.693 5.373,9.447 L8.62,4.64 L13.276,4.64 z M17.984,21.528 L17.831,21.528 L17.984,21.795 L17.984,21.528 z" fill="#FFFFFF"/>
      <path d="M119.452,5.168 C121.74,5.168 123.819,6.032 125.277,7.686 L125.646,8.209 L126.488,7.256 L126.481,7.249 L126.531,7.208 L126.574,7.159 L126.581,7.167 C127.929,5.78 129.655,5.351 131.5,5.168 L141.484,5.168 C144.095,5.168 146.299,6.086 147.74,8.008 C148.808,9.432 149.352,11.19 149.352,13.132 L149.352,46.54 C149.352,48.667 148.469,50.588 146.838,51.913 C145.442,53.031 143.606,53.592 141.628,53.592 L137.836,53.592 L135.572,52.063 L135.388,52.248 L131.116,52.248 L127.616,48.748 L127.616,48.467 C122.802,48.792 117.982,49.04 113.16,49.208 L113.16,50.092 L109.66,53.592 L105.484,53.592 L101.984,50.092 L101.984,12.268 C101.984,10.116 102.968,8.225 104.641,6.847 C105.983,5.774 107.614,5.168 109.324,5.168 L119.452,5.168 z M133.475,42.655 L132.978,43.2 L133.05,43.266 L133.568,42.748 L133.475,42.655 z" fill="#FFFFFF"/>
      <path d="M69.34,4.496 L72.71,7.052 C73.1,8.32 72.886,7.668 73.358,9.008 L77.788,9.008 L78.747,9.967 C79.782,8.768 81.228,8.184 82.73,7.848 C86.957,7.201 91.504,6.322 96.569,5.203 L100.824,8.62 L100.824,11.98 L98.213,15.365 C94.889,16.24 91.504,16.863 88.104,17.352 L88.104,18.704 L98.476,18.704 L101.976,22.204 L101.976,25.612 L98.476,29.112 L98.328,29.112 L98.328,50.044 L94.828,53.544 L90.556,53.544 L87.056,50.044 L87.056,43.317 C86.719,46.175 85.663,48.874 84.566,51.511 L81.388,53.544 L76.444,53.544 L74.138,49.464 L73.944,49.464 L73.944,50.044 L70.444,53.544 L66.172,53.544 L63.369,50.741 L61.612,52.008 L56.764,52.008 L53.553,47.116 C54.978,43.889 55.961,40.481 56.604,37.016 L53.744,34.156 L53.744,30.748 L55.544,28.948 L53.36,26.764 L53.36,23.452 L56.86,19.952 L57.872,19.952 L57.709,19.305 L54.224,15.82 L54.224,12.508 L57.724,9.008 L61.526,9.008 L61.511,8.958 L64.876,4.496 L69.34,4.496 z M68.308,32.112 L67.968,32.452 L68.308,32.792 L68.648,32.452 L68.308,32.112 z" fill="#FFFFFF"/>
      <path d="M50.812,46.588 C48.844,42.652 47.212,38.38 46.492,33.916 L42.508,33.916 C43.084,37.66 44.332,42.364 46.108,46.588 z M49.948,11.836 L49.948,8.62 L25.852,8.62 C24.412,8.62 23.26,9.1 22.492,9.916 C21.82,10.636 21.484,11.692 21.484,12.94 L21.484,30.796 C21.484,37.18 20.668,44.188 16.732,50.092 L21.628,50.092 C24.796,44.668 25.564,38.092 25.564,31.516 L25.564,13.084 C25.564,12.316 26.14,11.836 26.908,11.836 L36.172,11.836 C35.98,12.748 35.5,14.188 34.972,15.34 L32.812,15.34 C31.996,15.34 31.036,15.58 30.268,16.108 C29.452,16.636 28.828,17.5 28.828,18.7 L28.828,27.148 C28.828,28.444 29.116,29.5 29.692,30.268 C30.364,31.18 31.42,31.66 32.716,31.66 L36.46,31.66 L36.46,45.58 C36.46,46.204 35.98,46.732 35.308,46.732 L30.988,46.732 L32.524,50.092 L36.556,50.092 C37.804,50.092 38.86,49.708 39.58,48.988 C40.252,48.316 40.636,47.404 40.636,46.252 L40.636,31.66 L44.284,31.66 C45.484,31.66 46.492,31.324 47.212,30.652 C47.932,29.98 48.364,28.972 48.364,27.628 L48.364,19.372 C48.364,18.028 47.884,16.972 47.02,16.252 C46.3,15.676 45.244,15.34 44.044,15.34 L39.34,15.34 C39.724,14.38 40.204,12.892 40.54,11.836 z M19.324,18.028 C16.828,14.956 14.668,11.26 13.276,8.14 L8.62,8.14 C10.204,12.076 11.836,14.86 14.044,18.028 z M34.156,33.916 L30.124,33.916 C29.164,38.332 27.34,42.892 25.084,46.588 L29.692,46.588 C31.66,42.604 33.1,38.332 34.156,33.916 z M19.132,30.22 C16.636,27.004 14.716,23.548 13.228,19.9 L8.764,19.9 C10.3,23.644 11.836,27.004 14.092,30.22 z M19.036,32.284 L14.86,32.284 C13.516,38.428 11.644,44.668 8.524,50.092 L13.372,50.092 C15.964,44.764 17.932,38.14 19.036,32.284 z M44.14,21.676 L33.004,21.676 L33.004,19.42 C33.004,18.892 33.436,18.412 34.06,18.412 L43.084,18.412 C43.66,18.412 44.14,18.94 44.14,19.42 z M44.14,27.244 C44.14,27.916 43.564,28.54 42.844,28.54 L34.252,28.54 C33.436,28.54 33.004,28.012 33.004,27.292 L33.004,24.748 L44.14,24.748 z M64.78,15.82 C65.164,17.836 65.98,21.484 66.604,23.452 L68.908,23.452 C69.628,21.484 70.828,17.692 71.26,15.82 z M64.732,35.932 C63.964,40.588 63.1,44.044 61.612,48.508 L56.764,48.508 C58.636,44.188 59.692,40.204 60.364,35.932 L64.732,35.932 z M73.756,45.964 C72.988,42.796 72.412,39.004 72.076,35.932 L76.06,35.932 C76.396,39.052 77.068,42.892 77.932,45.964 z M70.444,26.764 L70.444,30.748 L78.46,30.748 L78.46,34.156 L70.444,34.156 L70.444,50.044 L66.172,50.044 L66.172,34.156 L57.244,34.156 L57.244,30.748 L66.172,30.748 L66.172,26.764 L56.86,26.764 L56.86,23.452 L62.428,23.452 C61.756,21.34 60.988,18.124 60.508,15.82 L57.724,15.82 L57.724,12.508 L66.412,12.508 C65.884,11.212 65.26,9.34 64.876,7.996 L69.34,7.996 C69.676,9.196 70.444,11.356 70.924,12.508 L77.788,12.508 L77.788,15.82 L75.724,15.82 C75.196,17.74 74.092,21.196 73.276,23.452 L78.988,23.452 L78.988,26.764 z M94.828,25.612 L94.828,50.044 L90.556,50.044 L90.556,25.612 L84.604,25.612 L84.604,31.084 C84.604,37.564 83.98,44.428 81.388,50.044 L76.444,50.044 C79.276,45.34 80.38,39.724 80.38,34.012 L80.38,14.812 C80.38,13.852 80.716,12.988 81.292,12.364 C81.82,11.788 82.492,11.404 83.26,11.308 C87.964,10.588 92.764,9.628 97.324,8.62 L97.324,11.98 C93.484,12.988 89.5,13.66 85.516,14.188 C84.94,14.284 84.604,14.716 84.604,15.244 L84.604,22.204 L98.476,22.204 L98.476,25.612 z M131.116,39.58 L120.508,39.58 L120.508,42.076 C123.388,41.98 128.524,41.644 131.116,41.404 z M131.116,34.348 L120.46,34.348 L120.46,36.604 L131.116,36.604 z M119.26,17.692 L109.66,17.692 L109.66,20.524 L118.3,20.524 C118.78,20.524 119.26,20.236 119.26,19.66 z M131.116,29.02 L120.46,29.02 L120.46,31.372 L131.116,31.372 z M119.26,12.796 C119.26,12.364 118.78,11.788 118.204,11.788 L110.716,11.788 C110.188,11.788 109.66,12.172 109.66,12.7 L109.66,14.62 L119.26,14.62 z M141.628,17.692 L132.124,17.692 L132.124,19.42 C132.124,20.092 132.7,20.524 133.132,20.524 L141.628,20.524 z M141.628,12.844 C141.628,12.316 141.052,11.788 140.524,11.788 L133.132,11.788 C132.604,11.788 132.124,12.316 132.124,12.844 L132.124,14.62 L141.628,14.62 z M123.532,19.9 C123.532,21.004 123.148,21.916 122.476,22.54 C121.756,23.26 120.748,23.596 119.596,23.596 L109.66,23.596 L109.66,50.092 L105.484,50.092 L105.484,12.268 C105.484,11.164 106.012,10.252 106.828,9.58 C107.548,9.004 108.412,8.668 109.324,8.668 L119.452,8.668 C120.796,8.668 121.9,9.148 122.62,9.964 C123.196,10.636 123.532,11.548 123.532,12.652 L123.532,19.9 z M138.988,44.092 C138.124,44.188 136.396,44.428 135.388,44.428 L135.388,48.748 L131.116,48.748 L131.116,44.716 C125.548,45.148 117.388,45.58 112.636,45.724 L112.636,42.364 C113.548,42.412 115.372,42.316 116.236,42.268 L116.236,29.02 L113.068,29.02 L113.068,25.852 L138.412,25.852 L138.412,29.02 L135.388,29.02 L135.388,41.068 C136.3,41.068 138.076,40.972 138.988,40.828 L138.988,44.092 z M145.852,46.54 C145.852,47.644 145.42,48.556 144.652,49.18 C143.932,49.756 142.876,50.092 141.628,50.092 L137.836,50.092 L136.444,46.636 L140.668,46.636 C141.244,46.636 141.628,46.204 141.628,45.724 L141.628,23.596 L132.508,23.596 C130.972,23.596 129.724,23.212 128.956,22.396 C128.236,21.676 127.804,20.62 127.804,19.324 L127.804,12.268 C127.804,11.26 128.284,10.348 128.956,9.724 C129.628,9.052 130.54,8.668 131.5,8.668 L141.484,8.668 C143.068,8.668 144.22,9.148 144.94,10.108 C145.516,10.876 145.852,11.884 145.852,13.132 L145.852,46.54 z" fill="#000000"/>
    </g>
  </g>
</svg>
